<svg width="16" height="24" viewBox="0 0 16 24" fill="none" xmlns="http://www.w3.org/2000/svg">
<path d="M1.07191 11.2125L15.1594 0.209375C15.1962 0.180394 15.2404 0.162384 15.287 0.157412C15.3336 0.152441 15.3806 0.160709 15.4227 0.181269C15.4648 0.201828 15.5003 0.233845 15.525 0.273641C15.5497 0.313438 15.5627 0.3594 15.5625 0.40625V2.82188C15.5625 2.975 15.4906 3.12187 15.3719 3.21563L4.1219 12L15.3719 20.7844C15.4937 20.8781 15.5625 21.025 15.5625 21.1781V23.5938C15.5625 23.8031 15.3219 23.9188 15.1594 23.7906L1.07191 12.7875C0.952175 12.6941 0.855315 12.5746 0.788694 12.4382C0.722073 12.3017 0.687445 12.1519 0.687445 12C0.687445 11.8481 0.722073 11.6983 0.788694 11.5618C0.855315 11.4254 0.952175 11.3059 1.07191 11.2125Z" fill="black" fill-opacity="0.8"/>
</svg>
