<svg width="16" height="24" viewBox="0 0 16 24" fill="none" xmlns="http://www.w3.org/2000/svg">
<path d="M14.9281 11.2125L0.840627 0.209375C0.803815 0.180394 0.759576 0.162384 0.712991 0.157412C0.666405 0.152441 0.619362 0.160709 0.577264 0.181269C0.535166 0.201828 0.499721 0.233845 0.474999 0.273641C0.450277 0.313438 0.437281 0.3594 0.437503 0.40625V2.82188C0.437503 2.975 0.509378 3.12187 0.628127 3.21563L11.8781 12L0.628127 20.7844C0.506253 20.8781 0.437503 21.025 0.437503 21.1781V23.5938C0.437503 23.8031 0.678127 23.9188 0.840627 23.7906L14.9281 12.7875C15.0478 12.6941 15.1447 12.5746 15.2113 12.4382C15.2779 12.3017 15.3126 12.1519 15.3126 12C15.3126 11.8481 15.2779 11.6983 15.2113 11.5618C15.1447 11.4254 15.0478 11.3059 14.9281 11.2125Z" fill="black" fill-opacity="0.8"/>
</svg>
